# This file uses centimeters as units for non-parametric coordinates.

mtllib rockz.mtl
g default
v 11.643960 -1.372244 5.903060
v 12.715066 -1.442439 5.137688
v 11.450343 0.011728 6.075915
v 12.864399 -0.355993 5.181961
v 10.477733 0.011728 4.457504
v 11.841215 0.011728 3.956606
v 10.899214 -1.524827 4.754700
v 11.936373 -1.690033 4.193481
v 10.849919 0.011728 5.655607
v 11.972342 -1.146810 3.819250
v 11.311699 -1.880161 4.348530
v 10.286019 -0.892745 4.367476
v 12.427106 -1.712902 4.567546
v 11.219639 -1.601088 5.532816
v 12.346329 -1.632185 5.609949
v 13.138223 -0.899216 5.206205
v 12.417416 0.011728 5.783684
v 11.394086 -0.721623 6.334833
v 12.469794 0.011728 4.626977
v 10.925421 0.011728 3.855216
v 12.645801 -0.867737 5.913938
v 11.739894 0.011728 4.979135
v 10.766930 -1.146810 3.668967
v 12.609090 -0.913767 4.459050
v 10.733787 -0.721623 5.901618
vt 0.360484 0.524122
vt 0.219713 0.709521
vt 0.206412 0.474593
vt 0.465398 0.575282
vt 0.566334 0.622957
vt 0.969602 0.817433
vt 0.912545 0.625157
vt 0.762238 0.792855
vt 0.099739 0.282531
vt 0.783477 0.952336
vt 0.816011 0.441181
vt 0.933252 0.298866
vt 0.991212 0.145650
vt 0.760728 0.189537
vt 0.340934 0.094999
vt 0.648017 0.326916
vt 0.559452 0.258639
vt 0.432376 0.402833
vt 0.476009 0.340032
vt 0.572802 0.458335
vt 0.233454 0.344863
vt 0.699881 0.570295
vt 0.603707 0.921234
vt 0.934704 0.979471
vt 0.777321 0.571438
vt 0.538003 0.640443
vt 0.060457 0.448141
vt 0.486963 0.780412
vt 0.033240 0.666692
vt 0.364698 0.827554
vt 0.420204 0.456273
vt 0.693096 0.012628
vt 0.223659 0.874661
vt 0.096224 0.839184
vt 0.593369 0.122816
vt 0.392271 0.695318
vt 0.839804 0.101636
vt 0.490186 0.220743
vt 0.178511 0.018991
vn 0.220296 -0.456050 0.862257
vn 0.220296 -0.456050 0.862257
vn 0.220296 -0.456050 0.862257
vn 0.220296 -0.456050 0.862257
vn 0.718805 -0.526534 0.453962
vn 0.718805 -0.526534 0.453962
vn 0.718805 -0.526534 0.453962
vn 0.718805 -0.526534 0.453962
vn 0.810478 0.338049 0.478381
vn 0.810478 0.338049 0.478381
vn 0.810478 0.338049 0.478381
vn 0.810478 0.338049 0.478381
vn 0.311069 0.254174 0.915769
vn 0.311069 0.254174 0.915768
vn 0.311069 0.254174 0.915768
vn 0.311069 0.254174 0.915768
vn 0.000000 1.000000 0.000000
vn 0.000000 1.000000 0.000000
vn 0.000000 1.000000 0.000000
vn 0.000000 1.000000 0.000000
vn 0.000000 1.000000 0.000000
vn 0.000000 1.000000 0.000000
vn 0.000000 1.000000 0.000000
vn 0.000000 1.000000 0.000000
vn 0.000000 1.000000 0.000000
vn 0.000000 1.000000 0.000000
vn 0.000000 1.000000 0.000000
vn 0.000000 1.000000 -0.000000
vn 0.000000 1.000000 -0.000000
vn 0.000000 1.000000 -0.000000
vn 0.000000 1.000000 -0.000000
vn -0.775527 0.211317 -0.594898
vn -0.775527 0.211317 -0.594898
vn -0.775527 0.211317 -0.594898
vn -0.775527 0.211317 -0.594898
vn 0.116725 0.136021 -0.983806
vn 0.116725 0.136021 -0.983806
vn 0.116725 0.136021 -0.983806
vn 0.116725 0.136021 -0.983806
vn 0.062423 -0.620450 -0.781757
vn 0.062423 -0.620450 -0.781758
vn 0.062423 -0.620450 -0.781758
vn 0.062423 -0.620450 -0.781758
vn -0.685787 -0.709229 -0.163375
vn -0.685787 -0.709229 -0.163375
vn -0.685787 -0.709229 -0.163375
vn -0.685787 -0.709229 -0.163375
vn 0.820008 -0.382346 -0.425909
vn 0.820008 -0.382346 -0.425909
vn 0.820008 -0.382346 -0.425909
vn 0.820008 -0.382346 -0.425909
vn 0.662121 -0.346467 -0.664497
vn 0.662121 -0.346467 -0.664497
vn 0.662121 -0.346467 -0.664497
vn 0.662121 -0.346467 -0.664497
vn 0.688689 0.191792 -0.699231
vn 0.688689 0.191792 -0.699231
vn 0.688689 0.191792 -0.699231
vn 0.688689 0.191792 -0.699231
vn 0.817293 0.279199 -0.504063
vn 0.817293 0.279199 -0.504063
vn 0.817293 0.279199 -0.504063
vn 0.817293 0.279199 -0.504063
vn -0.777738 -0.562062 0.281444
vn -0.777738 -0.562062 0.281444
vn -0.777737 -0.562062 0.281444
vn -0.777738 -0.562062 0.281444
vn -0.408276 -0.569569 0.713374
vn -0.408277 -0.569569 0.713374
vn -0.408277 -0.569569 0.713374
vn -0.408277 -0.569569 0.713374
vn -0.528983 0.331163 0.781350
vn -0.528983 0.331163 0.781350
vn -0.528983 0.331163 0.781350
vn -0.528983 0.331163 0.781350
vn -0.941351 0.202632 0.269811
vn -0.941351 0.202632 0.269811
vn -0.941351 0.202632 0.269811
vn -0.941351 0.202632 0.269811
vn 0.658671 0.751839 0.029826
vn 0.658671 0.751839 0.029826
vn 0.658671 0.751840 0.029826
s off
g pCube33
usemtl blinn3SG
f 1/1/1 15/36/2 21/2/3 18/3/4
f 15/36/5 2/30/6 16/33/7 21/2/8
f 21/2/9 16/33/10 4/34/11 17/29/12
f 18/3/13 21/2/14 17/29/15 3/27/16
f 3/7/17 17/6/18 22/8/19 9/25/20
f 17/6/21 19/10/22 22/8/23
f 22/8/24 19/10/25 6/23/26 20/28/27
f 9/25/28 22/8/29 20/28/30 5/26/31
f 5/13/32 20/12/33 23/14/34 12/37/35
f 20/12/36 6/11/37 10/16/38 23/14/39
f 23/14/40 10/16/41 8/17/42 11/35/43
f 12/37/44 23/14/45 11/35/46 7/32/47
f 2/31/48 13/19/49 24/20/50 16/4/51
f 13/19/52 8/17/53 10/16/54 24/20/55
f 24/20/56 10/16/57 6/11/58 19/22/59
f 16/4/60 24/20/61 19/22/62 4/5/63
f 7/38/64 14/18/65 25/21/66 12/15/67
f 14/18/68 1/1/69 18/3/70 25/21/71
f 25/21/72 18/3/73 3/27/74 9/9/75
f 12/15/76 25/21/77 9/9/78 5/39/79
f 17/6/80 4/24/81 19/10/82
